<?xml version="1.0" encoding="UTF-8" standalone="no"?>
<!-- Created with Inkscape (http://www.inkscape.org/) -->

<svg
   width="512"
   height="512"
   viewBox="0 0 512 512"
   version="1.1"
   id="svg1"
   sodipodi:docname="favicon.svg"
   inkscape:version="1.3.2 (091e20ef0f, 2023-11-25, custom)"
   xmlns:inkscape="http://www.inkscape.org/namespaces/inkscape"
   xmlns:sodipodi="http://sodipodi.sourceforge.net/DTD/sodipodi-0.dtd"
   xmlns="http://www.w3.org/2000/svg"
   xmlns:svg="http://www.w3.org/2000/svg">
  <sodipodi:namedview
     id="namedview1"
     pagecolor="#ffffff"
     bordercolor="#000000"
     borderopacity="0.25"
     inkscape:showpageshadow="2"
     inkscape:pageopacity="0.0"
     inkscape:pagecheckerboard="0"
     inkscape:deskcolor="#d1d1d1"
     inkscape:document-units="px"
     inkscape:zoom="0.63476563"
     inkscape:cx="414.32615"
     inkscape:cy="187.47077"
     inkscape:window-width="1536"
     inkscape:window-height="905"
     inkscape:window-x="0"
     inkscape:window-y="31"
     inkscape:window-maximized="1"
     inkscape:current-layer="layer1"
     showgrid="true">
    <inkscape:grid
       id="grid1"
       units="px"
       originx="0"
       originy="0"
       spacingx="1"
       spacingy="1"
       empcolor="#0099e5"
       empopacity="0.30196078"
       color="#0099e5"
       opacity="0.14901961"
       empspacing="5"
       dotted="false"
       gridanglex="30"
       gridanglez="30"
       visible="true" />
  </sodipodi:namedview>
  <defs
     id="defs1" />
  <g
     inkscape:label="Layer 1"
     inkscape:groupmode="layer"
     id="layer1">
    <circle
       style="fill:#f2f2f2;fill-opacity:1;stroke:#f9f9f9;stroke-opacity:1"
       id="path1"
       cx="256"
       cy="256"
       r="256" />
    <path
       d="m 377.81427,270.8067 q 13.18359,14.64844 19.33594,32.22656 6.44531,17.28516 6.44531,40.42969 0,55.07813 -40.72266,90.82031 -40.72265,35.74219 -101.07421,35.74219 -27.83204,0 -55.66407,-8.49609 -27.83203,-8.78906 -48.04687,-21.09375 l -12.59766,21.38672 h -23.4375 l -4.10156,-142.38282 h 23.73047 q 7.32422,26.36719 16.99219,47.75391 9.96093,21.09375 26.07421,39.55078 15.23438,17.28516 35.44922,27.53906 20.50782,10.25391 47.46094,10.25391 20.21484,0 35.15625,-5.27344 15.23438,-5.27343 24.60938,-14.9414 9.375,-9.66797 13.76953,-22.5586 4.6875,-13.18359 4.6875,-30.17578 0,-24.90234 -14.0625,-46.28906 -14.0625,-21.67969 -41.89453,-32.8125 -19.04297,-7.61719 -43.65235,-16.69922 -24.60937,-9.375 -42.48047,-17.57812 -35.15625,-15.82032 -54.78515,-41.3086 -19.33594,-25.78125 -19.33594,-67.08984 0,-23.73047 9.66797,-44.23828 9.66797,-20.507816 27.53906,-36.621097 16.99219,-15.234375 40.13672,-23.730469 23.14453,-8.789062 48.33984,-8.789062 28.71094,0 51.26953,8.789062 22.85157,8.789063 41.60157,20.507813 l 12.01172,-19.921875 h 23.4375 L 386.0174,183.79498 H 362.28693 Q 355.84161,160.06451 347.63849,138.38483 339.72833,116.70514 326.83771,99.127014 314.24005,82.134827 296.07599,72.173889 277.91193,61.919983 251.54474,61.919983 q -27.83203,0 -47.46094,17.871094 -19.6289,17.871093 -19.6289,43.652343 0,26.95313 12.59765,44.82422 12.59766,17.57812 36.6211,29.00391 21.38671,10.2539 41.89453,17.87109 20.80078,7.32422 40.13672,15.82031 17.57812,7.61719 33.6914,17.28516 16.40625,9.66797 28.41797,22.55859 z"
       id="text1"
       style="font-size:600px;font-family:Georgia;-inkscape-font-specification:Georgia;text-align:center;text-anchor:middle;stroke:#f9f9f9;stroke-opacity:1;fill:#008080"
       aria-label="S" />
  </g>
</svg>
